:version 1.10
:name ASF
:units
  mass 1
  length 1
  angle deg
:documentation
  ASF file generated by Kaydara
:root
  axis xyz
  order  tx ty tz rx ry rz
  position 0 0 0
  orientation 0 0 0
:bonedata
  begin
    id 1
    name RightUpLegDummy
    direction -0.718183 -0.695806 0.00816078
    length 4.904
    axis 0 0 0 xyz
  end
  begin
    id 2
    name RightUpLeg
    direction -0.0736652 -0.994202 0.0783343
    length 17.4976
    axis -2.72909 -3.00389 -4.00133 xyz
    dof rx ry rz
  end
  begin
    id 3
    name RightLeg
    direction -0.0389037 -0.994596 -0.0962598
    length 16.5821
    axis 3.95836 -18.5909 -4.46993 xyz
    dof rx ry rz
  end
  begin
    id 4
    name RightFoot
    direction -0.311643 -0.412678 0.855906
    length 3.77069
    axis -1.99483 -18.8351 -3.27644 xyz
    dof rx ry rz
  end
  begin
    id 5
    name RightToes
    direction -0.317852 0.0389852 0.947339
    length 3.85082
    axis -2.00228 -18.1713 -3.25211 xyz
    dof rx ry rz
  end
  begin
    id 6
    name SpineDummy
    direction 8.3039e-015 1 4.44677e-016
    length 4.6813
    axis 0 0 0 xyz
  end
  begin
    id 7
    name Spine
    direction -0.000262373 0.999988 0.00493267
    length 10.1015
    axis -0.00246081 0.00062579 0.0150362 xyz
    dof rx ry rz
  end
  begin
    id 8
    name Spine1
    direction 0 0 0
    length 0
    axis -0.00349562 0.000650293 0.0196666 xyz
    dof rx ry rz
  end
  begin
    id 9
    name HEadDummy
    direction -0.000343232 0.999999 0.00123745
    length 3.43865
    axis -0.00349562 0.000650293 0.0196666 xyz
  end
  begin
    id 10
    name HEad
    direction -0.0461221 0.980933 0.188796
    length 5.12695
    axis -0.00351404 -7.04812 0.0199272 xyz
    dof rx ry rz
  end
  begin
    id 11
    name LeftShoulder1Dummy
    direction 0.998904 -0.0399089 -0.0244534
    length 3.5433
    axis -0.00349562 0.000650293 0.0196666 xyz
  end
  begin
    id 12
    name LeftShoulder1
    direction 0.99951 1.64443e-005 0.0312999
    length 4.05031
    axis -0.00349562 0.000650293 0.0196666 xyz
    dof rx ry rz
  end
  begin
    id 13
    name LeftArm
    direction 0.984791 0.0515299 0.165927
    length 12.9126
    axis -64.823 -10.7743 5.20463 xyz
    dof rx ry rz
  end
  begin
    id 14
    name LeftForeArm
    direction 0.984968 0.0534808 0.16425
    length 10.8596
    axis -30.0462 -7.70601 1.87451 xyz
    dof rx ry rz
  end
  begin
    id 15
    name LeftHand
    direction 0.975871 0.0289682 0.216418
    length 6.62295
    axis -20.1348 -6.98077 1.86072 xyz
    dof rx ry rz
  end
  begin
    id 16
    name RightShoulderDummy
    direction -0.998877 -0.0405946 -0.0244307
    length 3.5433
    axis -0.00349562 0.000650293 0.0196666 xyz
  end
  begin
    id 17
    name RightShoulder
    direction -0.998933 -0.0249743 -0.0388558
    length 4.05031
    axis -0.0205316 -4.02113 1.41395 xyz
    dof rx ry rz
  end
  begin
    id 18
    name RightArm
    direction -0.997559 0.068664 0.0127103
    length 12.9638
    axis -67.3882 1.84188 -6.15987 xyz
    dof rx ry rz
  end
  begin
    id 19
    name RightForeArm
    direction -0.991508 0.0912848 0.0926241
    length 10.8312
    axis -22.1975 3.41087 -4.28711 xyz
    dof rx ry rz
  end
  begin
    id 20
    name RightHand
    direction -0.989262 0.0600788 0.133232
    length 6.57864
    axis -12.2911 2.17515 -4.39675 xyz
    dof rx ry rz
  end
  begin
    id 21
    name LeftUpLegDummy
    direction 0.718183 -0.695806 0.00816078
    length 4.904
    axis 0 0 0 xyz
  end
  begin
    id 22
    name LeftUpLeg
    direction 0.0831398 -0.99469 0.0606531
    length 17.4976
    axis -1.71016 2.29552 4.63832 xyz
    dof rx ry rz
  end
  begin
    id 23
    name LeftLeg
    direction 0.0498442 -0.991778 -0.117862
    length 16.5821
    axis 5.13757 15.5727 5.13348 xyz
    dof rx ry rz
  end
  begin
    id 24
    name LeftFoot
    direction 0.269026 -0.433896 0.85986
    length 3.77069
    axis -0.576502 15.6961 4.10267 xyz
    dof rx ry rz
  end
  begin
    id 25
    name LeftToes
    direction 0.277311 0.0251143 0.960452
    length 3.85048
    axis -0.576502 15.6961 4.10267 xyz
    dof rx ry rz
  end
:hierarchy
  begin
    root RightUpLegDummy SpineDummy LeftUpLegDummy
    RightUpLegDummy RightUpLeg
    RightUpLeg RightLeg
    RightLeg RightFoot
    RightFoot RightToes
    SpineDummy Spine
    Spine Spine1
    Spine1 HEadDummy LeftShoulder1Dummy RightShoulderDummy
    HEadDummy HEad
    LeftShoulder1Dummy LeftShoulder1
    LeftShoulder1 LeftArm
    LeftArm LeftForeArm
    LeftForeArm LeftHand
    RightShoulderDummy RightShoulder
    RightShoulder RightArm
    RightArm RightForeArm
    RightForeArm RightHand
    LeftUpLegDummy LeftUpLeg
    LeftUpLeg LeftLeg
    LeftLeg LeftFoot
    LeftFoot LeftToes
  end

:SAMPLES-PER-SECOND 30
:FULLY-SPECIFIED
:DEGREES
122
root  -2.01722 25.1171 54.2388 -169.108 10.8112 -174.707
RightUpLeg  -83.9342 3.98198 14.0519
RightLeg  86.9851 15.8715 -6.27679
RightFoot  -13.7394 0.0199056 -4.6258
RightToes  -1.16415e-010 -3.18055e-015 -2.98177e-016
Spine  38.5996 -1.79116 -0.441402
Spine1  1.88954 -4.39444 10.1358
HEad  -17.4744 3.94814 11.6106
LeftShoulder1  -3.88251e-019 9.70628e-020 -3.87848e-018
LeftArm  -19.4762 33.7871 -55.6615
LeftForeArm  13.5915 -14.2645 3.17602
LeftHand  -3.81271 -7.77211 33.9414
RightShoulder  3.66205 7.96942 18.6866
RightArm  -10.2694 -46.7445 22.6788
RightForeArm  -41.0013 66.3931 -78.6464
RightHand  -2.48153 5.56939 -25.7163
LeftUpLeg  -40.0647 2.45186 -1.27333
LeftLeg  107.385 -17.7109 11.9499
LeftFoot  -51.3271 -6.59489 -18.4673
LeftToes  1.69338e-011 3.79281e-011 -2.20049e-011
123
root  -1.97692 25.2662 53.7325 -167.64 11.3472 -174.349
RightUpLeg  -84.19 4.4353 14.3671
RightLeg  87.2258 15.8896 -5.80515
RightFoot  -15.3214 -0.0355939 -4.51873
RightToes  -1.16415e-010 -3.18055e-015 -2.98177e-016
Spine  38.3879 -1.88608 0.863361
Spine1  2.3367 -4.07818 9.90641
HEad  -17.4134 3.5791 11.4706
LeftShoulder1  -3.88251e-019 9.70628e-020 -3.87848e-018
LeftArm  -20.3514 34.4154 -57.9591
LeftForeArm  15.6816 -14.6747 3.20071
LeftHand  -4.06074 -8.47556 34.2287
RightShoulder  3.38337 7.72905 17.2933
RightArm  -11.7539 -44.0036 26.816
RightForeArm  -38.6933 66.2287 -77.1538
RightHand  -2.63816 5.7253 -26.9139
LeftUpLeg  -39.822 2.5877 -1.18548
LeftLeg  106.328 -17.5169 12.0439
LeftFoot  -51.4402 -6.78404 -18.9394
LeftToes  1.69338e-011 3.79281e-011 -2.20049e-011
124
root  -1.92027 25.5326 53.2128 -166.248 11.9926 -174.182
RightUpLeg  -84.0447 4.91848 14.4754
RightLeg  87.1293 15.8775 -5.35914
RightFoot  -16.3099 -0.0701738 -4.49812
RightToes  -1.16415e-010 -3.18055e-015 -2.98177e-016
Spine  38.0485 -1.79962 1.93319
Spine1  2.97031 -3.6253 9.54795
HEad  -17.2145 3.29986 11.5684
LeftShoulder1  -3.88251e-019 9.70628e-020 -3.87848e-018
LeftArm  -20.246 34.8065 -59.2836
LeftForeArm  16.6061 -16.0136 3.04634
LeftHand  -4.34775 -8.94786 35.3339
RightShoulder  3.11507 7.52485 15.8579
RightArm  -12.732 -41.2691 30.3039
RightForeArm  -34.541 65.8776 -74.3522
RightHand  -2.64696 5.5521 -27.4015
LeftUpLeg  -39.357 2.94068 -1.24366
LeftLeg  104.653 -17.1354 11.9989
LeftFoot  -51.4713 -6.88516 -19.2066
LeftToes  1.69338e-011 3.79281e-011 -2.20049e-011
125
root  -1.84043 25.8885 52.6752 -164.889 12.4422 -174.251
RightUpLeg  -83.6839 5.1625 14.3341
RightLeg  86.8289 15.8533 -5.03973
RightFoot  -17.2237 -0.10522 -4.55769
RightToes  -1.16415e-010 -3.18055e-015 -2.98177e-016
Spine  37.819 -1.56953 2.85707
Spine1  3.09187 -3.05002 9.27895
HEad  -16.8473 2.84479 11.7602
LeftShoulder1  -3.88251e-019 9.70628e-020 -3.87848e-018
LeftArm  -19.1664 35.4675 -60.0596
LeftForeArm  16.8027 -18.2868 3.03107
LeftHand  -4.48675 -9.07158 36.0847
RightShoulder  2.87344 7.30216 14.5889
RightArm  -12.8656 -38.7551 32.4274
RightForeArm  -31.1159 65.4525 -71.24
RightHand  -2.57274 5.31603 -27.2212
LeftUpLeg  -38.8024 3.35327 -1.56478
LeftLeg  102.328 -16.7749 12.4323
LeftFoot  -51.0102 -6.81651 -19.2621
LeftToes  1.69338e-011 3.79281e-011 -2.20049e-011
126
root  -1.76053 26.3251 52.1462 -163.46 12.5402 -174.32
RightUpLeg  -83.1897 5.13966 14.2368
RightLeg  86.0202 15.797 -4.78216
RightFoot  -18.2359 -0.158182 -4.93054
RightToes  -1.16415e-010 -3.18055e-015 -2.98177e-016
Spine  37.6699 -1.30214 4.05321
Spine1  2.64886 -2.39112 9.21158
HEad  -16.5848 2.19135 11.7659
LeftShoulder1  -3.88251e-019 9.70628e-020 -3.87848e-018
LeftArm  -17.1098 36.3087 -60.6802
LeftForeArm  16.1862 -20.7686 3.30712
LeftHand  -4.56595 -9.10185 36.6001
RightShoulder  2.64808 7.01121 13.5
RightArm  -12.3462 -36.5135 33.288
RightForeArm  -28.8953 65.0324 -68.4514
RightHand  -2.54368 5.28786 -26.9943
LeftUpLeg  -38.3414 3.63588 -1.8526
LeftLeg  99.5861 -16.3239 12.9555
LeftFoot  -50.4665 -6.64407 -19.0663
LeftToes  1.69338e-011 3.79281e-011 -2.20049e-011
127
root  -1.68797 26.8013 51.6064 -162.139 12.325 -174.401
RightUpLeg  -82.4436 4.89709 14.1295
RightLeg  84.9252 15.7278 -4.56978
RightFoot  -19.2901 -0.213512 -5.19716
RightToes  -1.16415e-010 -3.18055e-015 -2.98177e-016
Spine  37.3719 -1.12658 5.48482
Spine1  2.17765 -1.80666 9.29867
HEad  -16.5729 1.62496 11.5288
LeftShoulder1  -3.88251e-019 9.70628e-020 -3.87848e-018
LeftArm  -13.9499 37.0046 -60.9497
LeftForeArm  14.256 -22.7309 3.60665
LeftHand  -4.66696 -9.19227 37.1312
RightShoulder  2.43622 6.68726 12.5151
RightArm  -11.8541 -34.3539 33.777
RightForeArm  -26.3253 64.5527 -65.7817
RightHand  -2.60827 5.35077 -27.4958
LeftUpLeg  -37.8474 3.77567 -2.04498
LeftLeg  96.7492 -15.7255 13.0792
LeftFoot  -50.212 -6.49109 -18.7618
LeftToes  1.69338e-011 3.79281e-011 -2.20049e-011
128
root  -1.60665 27.2757 51.0159 -161.133 11.9171 -174.714
RightUpLeg  -81.3692 4.38015 13.7497
RightLeg  84.0521 15.6829 -4.31413
RightFoot  -20.5689 -0.249898 -4.93236
RightToes  -1.16415e-010 -3.18055e-015 -2.98177e-016
Spine  36.9093 -1.01856 6.67983
Spine1  1.79581 -1.41747 9.65185
HEad  -16.6498 1.28427 11.1942
LeftShoulder1  -3.88251e-019 9.70628e-020 -3.87848e-018
LeftArm  -9.84584 37.8294 -60.7753
LeftForeArm  10.7333 -24.3254 3.94118
LeftHand  -4.62198 -9.12944 36.947
RightShoulder  2.28027 6.43348 11.7851
RightArm  -11.4709 -31.9795 34.2106
RightForeArm  -22.8279 63.9286 -62.8813
RightHand  -2.71206 5.29317 -28.6904
LeftUpLeg  -37.2068 3.98733 -2.37851
LeftLeg  94.0456 -15.1569 13.2293
LeftFoot  -49.2559 -6.24215 -18.5466
LeftToes  1.69338e-011 3.79281e-011 -2.20049e-011
129
root  -1.51713 27.7381 50.3849 -160.385 11.4534 -175.151
RightUpLeg  -80.0402 3.70022 13.2202
RightLeg  83.3793 15.665 -3.94102
RightFoot  -22.137 -0.272872 -4.42286
RightToes  -1.16415e-010 -3.18055e-015 -2.98177e-016
Spine  36.5616 -0.871839 7.60334
Spine1  1.05633 -1.10388 10.3367
HEad  -16.6697 0.963652 10.8222
LeftShoulder1  -3.88251e-019 9.70628e-020 -3.87848e-018
LeftArm  -5.44704 39.3928 -60.5224
LeftForeArm  5.99891 -26.0765 4.69291
LeftHand  -4.36482 -8.84151 35.712
RightShoulder  2.21294 6.32283 11.4626
RightArm  -10.6972 -29.4698 34.2008
RightForeArm  -19.6864 63.2503 -60.0955
RightHand  -2.79064 5.1869 -29.7633
LeftUpLeg  -36.6567 4.35482 -2.72241
LeftLeg  92.0207 -14.7351 13.3651
LeftFoot  -46.4585 -5.76479 -18.6523
LeftToes  1.69338e-011 3.79281e-011 -2.20049e-011
130
root  -1.44304 28.1839 49.7432 -159.743 11.0294 -175.385
RightUpLeg  -78.5581 3.19913 12.8112
RightLeg  82.5823 15.6442 -3.6405
RightFoot  -23.6991 -0.2817 -3.91947
RightToes  -1.16415e-010 -3.18055e-015 -2.98177e-016
Spine  36.4939 -0.736804 8.76168
Spine1  -0.222772 -0.685674 10.9627
HEad  -16.6989 0.479313 10.2957
LeftShoulder1  -3.88251e-019 9.70628e-020 -3.87848e-018
LeftArm  -1.67317 41.8285 -60.317
LeftForeArm  1.01145 -28.1762 5.75003
LeftHand  -4.14628 -8.63531 34.5297
RightShoulder  2.19585 6.32412 11.334
RightArm  -9.48422 -27.3277 33.8238
RightForeArm  -17.8935 62.6853 -57.9333
RightHand  -2.82579 5.14291 -30.2387
LeftUpLeg  -36.8054 4.54003 -2.64365
LeftLeg  91.5988 -14.54 12.515
LeftFoot  -41.6493 -5.09078 -19.3961
LeftToes  1.69338e-011 3.79281e-011 -2.20049e-011
131
root  -1.39126 28.6101 49.069 -159.185 10.6604 -175.462
RightUpLeg  -76.9225 2.98001 12.3901
RightLeg  81.6766 15.6044 -3.5854
RightFoot  -25.1361 -0.247391 -3.16979
RightToes  -1.16415e-010 -3.18055e-015 -2.98177e-016
Spine  36.5423 -0.747276 10.3093
Spine1  -1.64269 -0.207429 11.004
HEad  -16.8475 -0.0397591 9.49754
LeftShoulder1  -3.88251e-019 9.70628e-020 -3.87848e-018
LeftArm  0.639578 44.8197 -59.8273
LeftForeArm  -3.20488 -30.6955 6.50207
LeftHand  -4.10998 -8.61731 34.2864
RightShoulder  2.17509 6.35562 11.1321
RightArm  -8.28932 -25.749 33.6808
RightForeArm  -16.9622 62.2015 -56.1681
RightHand  -2.79406 4.95893 -30.4165
LeftUpLeg  -38.4259 4.29277 -2.26663
LeftLeg  93.13 -14.7064 11.4092
LeftFoot  -33.873 -3.85683 -20.3507
LeftToes  1.69338e-011 3.79281e-011 -2.20049e-011
132
root  -1.34644 29.0112 48.3293 -158.81 10.3519 -175.671
RightUpLeg  -75.071 2.75015 11.7592
RightLeg  80.922 15.5717 -3.55219
RightFoot  -26.7058 -0.172669 -2.21211
RightToes  -1.16415e-010 -3.18055e-015 -2.98177e-016
Spine  36.498 -0.847421 11.8681
Spine1  -2.75059 0.188891 10.4662
HEad  -17.0782 -0.360946 8.46702
LeftShoulder1  -3.88251e-019 9.70628e-020 -3.87848e-018
LeftArm  1.74242 48.1098 -59.0796
LeftForeArm  -6.73567 -33.5723 7.12526
LeftHand  -4.07145 -8.46508 34.3444
RightShoulder  2.17125 6.39556 11.0426
RightArm  -7.21917 -24.2185 33.8277
RightForeArm  -15.8729 61.5729 -54.0643
RightHand  -2.70319 4.51573 -30.7152
LeftUpLeg  -42.0741 4.06419 -2.1817
LeftLeg  95.9406 -15.3931 12.1962
LeftFoot  -20.8782 -1.44865 -19.7811
LeftToes  1.69338e-011 3.79281e-011 -2.20049e-011
133
root  -1.31628 29.3176 47.5822 -158.725 10.1718 -175.837
RightUpLeg  -73.0953 2.39709 11.2547
RightLeg  80.5214 15.5796 -3.32009
RightFoot  -28.4601 -0.117737 -1.58586
RightToes  -1.16415e-010 -3.18055e-015 -2.98177e-016
Spine  36.3506 -0.867753 13.4415
Spine1  -3.42556 0.539549 9.77482
HEad  -17.2311 -0.43525 7.3626
LeftShoulder1  -3.88251e-019 9.70628e-020 -3.87848e-018
LeftArm  1.92556 51.5038 -58.554
LeftForeArm  -9.13406 -36.4441 7.8783
LeftHand  -3.93842 -8.15627 34.0284
RightShoulder  2.2379 6.48675 11.3911
RightArm  -5.98265 -22.2629 33.759
RightForeArm  -13.9726 60.6179 -51.2583
RightHand  -2.61844 4.07753 -31.0925
LeftUpLeg  -47.335 4.50779 -2.40848
LeftLeg  99.0274 -16.5664 14.4232
LeftFoot  -4.65213 1.2014 -16.6052
LeftToes  1.69338e-011 3.79281e-011 -2.20049e-011
134
root  -1.30862 29.5129 46.8587 -158.987 10.1857 -175.765
RightUpLeg  -70.9992 2.13996 11.0361
RightLeg  80.4262 15.6056 -3.07766
RightFoot  -30.1255 -0.115356 -1.45464
RightToes  -1.16415e-010 -3.18055e-015 -2.98177e-016
Spine  36.221 -0.793505 15.1316
Spine1  -3.74576 0.958733 8.93564
HEad  -17.2042 -0.368686 6.32086
LeftShoulder1  -3.88251e-019 9.70628e-020 -3.87848e-018
LeftArm  1.89079 54.6982 -58.3398
LeftForeArm  -9.97096 -38.8282 8.60924
LeftHand  -3.97366 -8.26814 34.0367
RightShoulder  2.3546 6.64143 11.9994
RightArm  -4.6696 -20.2384 33.48
RightForeArm  -11.0012 59.3055 -47.9705
RightHand  -2.56078 3.80427 -31.2914
LeftUpLeg  -52.5125 5.636 -2.78286
LeftLeg  101.593 -17.6721 15.9469
LeftFoot  5.71081 2.0343 -12.0156
LeftToes  1.69338e-011 3.79281e-011 -2.20049e-011
